<svg xmlns="http://www.w3.org/2000/svg" viewBox="0 0 219.92 314.86"><title>Asset 1</title><g id="Layer_2" data-name="Layer 2"><g id="Layer_1-2" data-name="Layer 1"><path d="M200,239.84c-.58-21.88-2.85-43.58-9.73-64.41-10.29-31.22-32.13-49.95-64.47-55.51-42.34-7.28-83.59,20.46-92.45,64.51A80,80,0,0,0,34.64,221a83.54,83.54,0,0,1,.52,42c-.24,1-.27,2.14-.86,2.81a4,4,0,0,1-2.73,1.37c-1.42-.05-1.68-1.39-1.57-2.64a11.81,11.81,0,0,1,.39-1.95c3.6-13.87,2.93-27.65-.56-41.46-6.45-25.54-2-49.28,13.08-70.75,14.2-20.22,33.89-31.91,58.39-35.55,40.54-6,82.72,19.11,94.59,62.35a230.68,230.68,0,0,1,8.27,51.62q.38,8.73.61,17.46a20.38,20.38,0,0,1-.25,4,2.15,2.15,0,0,1-2.48,1.93,2.1,2.1,0,0,1-2.08-2.33C199.93,246.5,200,243.17,200,239.84Z" transform="translate(-6.11 -6.52)"/><path d="M192.9,247.68c-.39,5-1.13,14.41-1.86,23.87,0,.16,0,.33,0,.49-.37,2.42-1.37,3.7-2.81,3.36-2.13-.51-2.24-2.15-2-3.94A209.85,209.85,0,0,0,188,237.57c-.47-19-2.81-37.9-8.28-56.13-8.58-28.56-28.08-46-57.5-50C80.61,125.75,50,155.67,44.81,188.35a66.6,66.6,0,0,0,1.11,28.21,100.45,100.45,0,0,1,3,36.63,96.25,96.25,0,0,1-5.65,24.17c-.23.61-.38,1.43-.84,1.75-.75.51-1.87,1.11-2.56.87a2.89,2.89,0,0,1-1.41-2.25,9.54,9.54,0,0,1,.86-3.35,90.87,90.87,0,0,0,2.18-55.44,74.11,74.11,0,0,1,39-85.54c27.84-13.59,60.32-8.51,83,12.57,11.64,10.82,18.6,24.07,22.25,39.34C190.39,204.84,192.64,223.3,192.9,247.68Z" transform="translate(-6.11 -6.52)"/><path d="M111.81,101.86c25.78.6,47.1,8.37,65.32,24.12,16.26,14.06,26.54,31.8,31.56,52.66a307.31,307.31,0,0,1,7,41.3c0,.34.09.67.1,1,.07,1.69-.44,3.08-2.36,3.14-1.6,0-2.27-1.09-2.43-2.61-.25-2.31-.59-4.62-.82-6.94a242,242,0,0,0-7.11-38.22A93.07,93.07,0,0,0,21.8,181.47a95.37,95.37,0,0,0,.88,41.08,176.17,176.17,0,0,1,2.92,18.19,20.44,20.44,0,0,1-.45,6.41,2.69,2.69,0,0,1-2.2,1.46c-.7-.05-1.52-1.07-1.9-1.86a5.88,5.88,0,0,1-.14-2.46,81.83,81.83,0,0,0-2.61-19.74c-8.66-37.13.59-69.29,27.76-95.91,15.2-14.9,33.86-23.28,55.06-25.79C105.24,102.37,109.39,102.08,111.81,101.86Z" transform="translate(-6.11 -6.52)"/><path d="M176.07,247.92c0-24.81-2.61-44.38-8-63.56-7.59-27.13-31.63-42.17-56.6-41.7a57.22,57.22,0,0,0-53.88,71.89C63.86,239,62.41,263,52.51,286.36a12.89,12.89,0,0,1-1.84,3.51,2.79,2.79,0,0,1-2.52.74,2.85,2.85,0,0,1-1.26-2.33,12.55,12.55,0,0,1,1.27-3.74A103.63,103.63,0,0,0,56,256.78a100.68,100.68,0,0,0-2.65-39.57c-4.21-15.94-2.9-31.32,4.71-46,16.38-31.65,56.68-43,87-24.37,14.14,8.71,23.73,21.09,28,37.36a228.56,228.56,0,0,1,7.72,66.19,213.65,213.65,0,0,1-4.71,39.09c-.73,3.28-1.72,4.46-3.4,3.83-2.47-.92-1.66-2.93-1.3-4.67C174.48,273.57,176.16,258.39,176.07,247.92Z" transform="translate(-6.11 -6.52)"/><path d="M168.94,249.5c0,13.37-2.77,32.92-8.07,52.11a11.64,11.64,0,0,1-1.41,3.69,2.78,2.78,0,0,1-2.51.81,2.94,2.94,0,0,1-1.55-2.19,9.67,9.67,0,0,1,.74-3.38,207.78,207.78,0,0,0,7.73-68.14,196.94,196.94,0,0,0-7.34-45.22,45.37,45.37,0,0,0-88.21,4.95,47.78,47.78,0,0,0,1,20.31c7.31,28.48,4.62,56.07-7.66,82.76a13.71,13.71,0,0,1-1.94,3.45c-.54.62-2.08,1.23-2.45.94a4.26,4.26,0,0,1-1.39-2.79,6.32,6.32,0,0,1,1-2.74,116.83,116.83,0,0,0,11.7-48.62,102.88,102.88,0,0,0-3.41-29.67c-3-11-3.35-22,.64-32.86,11.83-32.29,50.52-42.71,76.51-23.52a50.61,50.61,0,0,1,19.67,29.74C166.55,207.71,168.94,225.46,168.94,249.5Z" transform="translate(-6.11 -6.52)"/><path d="M157.49,243.24a222.09,222.09,0,0,1-11.55,66.19,23.27,23.27,0,0,1-2,4.53,2.3,2.3,0,0,1-2.07.83,3.35,3.35,0,0,1-1.75-2.05,6.11,6.11,0,0,1,.63-2.84,203.09,203.09,0,0,0,9.89-41.66,202.08,202.08,0,0,0,.7-42.87,212.81,212.81,0,0,0-5.44-31.93c-3.23-13.22-11.16-22.1-24.41-25.81-19.86-5.56-40.52,9.06-41.58,29.59A45.39,45.39,0,0,0,81.18,210c7.7,31.79,4.62,62.41-9.53,91.9a16.76,16.76,0,0,1-2.5,4.27,3.45,3.45,0,0,1-3,.38c-.5-.18-.88-1.71-.73-2.52a13.12,13.12,0,0,1,1.48-3.13,129.17,129.17,0,0,0,13.45-51.27,126.8,126.8,0,0,0-4-39,38.57,38.57,0,0,1,16.84-43.36c20.48-12.59,48.25-2.93,55.73,19.93a159.57,159.57,0,0,1,5.83,26.25C156.16,223.29,156.6,233.3,157.49,243.24Z" transform="translate(-6.11 -6.52)"/><path d="M145.08,240.07c-.19,28.16-4.76,52-14,75a13.8,13.8,0,0,1-1.69,3.57c-.5.62-2,1.22-2.46.92a3.8,3.8,0,0,1-1.54-2.69c0-1.08.75-2.17,1.19-3.25A188.22,188.22,0,0,0,139.81,230a177.72,177.72,0,0,0-5.93-35.38c-2.61-9.59-10.66-16.2-20.37-16.25a21.1,21.1,0,0,0-20.73,14.38,22.06,22.06,0,0,0-.35,13.28,143.49,143.49,0,0,1,4.42,48,143.64,143.64,0,0,1-16,56.22c-.38.74-.7,1.77-1.33,2.05a4.53,4.53,0,0,1-3.12.31c-.48-.16-.86-1.7-.68-2.49a16.45,16.45,0,0,1,1.63-3.62c12.37-24.23,16.87-50,14.44-76.94-.72-7.91-2.58-15.74-4.31-23.52a26.25,26.25,0,0,1,50.46-14.32,157.87,157.87,0,0,1,6,31.31C144.6,229.84,144.86,236.67,145.08,240.07Z" transform="translate(-6.11 -6.52)"/><path d="M223.1,189.78c-.37.43-1,1.78-1.78,1.87s-2-.83-2.63-1.63a7.31,7.31,0,0,1-.74-2.86c-3-14.22-6.83-28.12-14.48-40.69-16.83-27.64-41.2-44.75-73-50.11-54.6-9.2-104.35,24.52-118.59,75.13-.36,1.28-.63,2.6-1.07,3.85-.5,1.41-1.52,2.24-3.08,1.75s-1.9-1.79-1.48-3.22c1.14-3.83,2.12-7.72,3.57-11.42C25,123.77,52.84,99.7,93.74,92c34.18-6.45,64.76,2.6,91.16,25,19.18,16.28,30.83,37.27,36,61.85.65,3.09,1.36,6.17,2,9.26C223.05,188.42,223,188.76,223.1,189.78Z" transform="translate(-6.11 -6.52)"/><path d="M133.63,243.54a192.63,192.63,0,0,1-16,72.74,35.9,35.9,0,0,1-1.75,3.58c-.74,1.29-1.83,2-3.3,1.16a2.11,2.11,0,0,1-1-3c.42-.9.8-1.82,1.21-2.74a174,174,0,0,0,14.86-57.67,176.83,176.83,0,0,0-5-58.44,20.06,20.06,0,0,0-.93-2.84,9.31,9.31,0,0,0-11.4-5.58,9.14,9.14,0,0,0-6.69,10.74c1,5.89,2.47,11.71,3.48,17.6a149.48,149.48,0,0,1,1,40.8,156.81,156.81,0,0,1-15.31,52.87,40.48,40.48,0,0,1-2.15,3.94c-.7,1.1-1.9,1.73-2.92.75a4.27,4.27,0,0,1-1-2.94,7.39,7.39,0,0,1,1.16-2.72A147.9,147.9,0,0,0,103.71,258a152.9,152.9,0,0,0-3.95-52.52,25,25,0,0,1-.89-4.89c-.32-7.24,4.3-13.33,11-14.64,7.64-1.5,14.77,2.4,16.85,9.79a137.58,137.58,0,0,1,4.1,19C132.07,224.31,132.71,233.94,133.63,243.54Z" transform="translate(-6.11 -6.52)"/><path d="M226,154.72c-.48.64-.91,1.77-1.65,2a2.93,2.93,0,0,1-2.58-.68,14.55,14.55,0,0,1-1.81-3.51c-17.93-38.24-47.87-60.8-89.28-68.39-49.58-5.56-88.56,12-116.66,53.4-.75,1.1-1.26,2.45-2.23,3.28-.72.61-2.37,1.07-2.94.67s-.89-2-.79-3a6.83,6.83,0,0,1,1.37-2.62C29.18,105,57,86,93.1,79.93c35.24-6,67,2.72,95.23,24.37a117.29,117.29,0,0,1,36.28,46.89C225.07,152.26,225.48,153.35,226,154.72Z" transform="translate(-6.11 -6.52)"/><path d="M224.39,126.42c-.57.78-.89,1.69-1.51,2a2.48,2.48,0,0,1-2.21-.18,15.93,15.93,0,0,1-2.56-3c-18.66-25.85-43.41-42.95-74.38-50.35-41.55-9.94-79.11-.93-112.52,25.49-4.55,3.6-8.53,7.92-12.77,11.91-.48.46-.91,1-1.35,1.47-1.12,1.25-2.48,2-3.88.7s-.6-2.7.46-3.92a122.09,122.09,0,0,1,19.5-17.83A129.85,129.85,0,0,1,95.82,67.3c38.46-4.69,72.8,5.57,102.87,30a125.54,125.54,0,0,1,23.63,25.62C223.07,124,223.65,125.17,224.39,126.42Z" transform="translate(-6.11 -6.52)"/><path d="M110.32,54c39.29.78,71.52,12.72,99.12,36.79,2.63,2.3,5.14,4.75,7.65,7.18a9,9,0,0,1,2.2,2.68,2.9,2.9,0,0,1-.3,2.6,2.79,2.79,0,0,1-2.61.41,18.18,18.18,0,0,1-3.31-3C193.45,81.17,170.18,68,143.12,62.31,101,53.5,62.53,62.23,27.85,87.69,26.37,88.77,25,89.93,23.49,91A2.16,2.16,0,0,1,20.35,91a2.24,2.24,0,0,1,.19-3.51c1.47-1.34,3.05-2.58,4.65-3.77,20-14.92,42.27-24.41,67-27.81C99.13,54.94,106.11,54.45,110.32,54Z" transform="translate(-6.11 -6.52)"/><path d="M113.12,42.27c35.74.46,67.93,11.33,96.38,33.06a26.57,26.57,0,0,1,2.3,1.92c.92.88,1.37,1.89.47,3.08-1,1.34-2.24,1.28-3.5.46-1-.63-1.84-1.42-2.77-2.12a153.41,153.41,0,0,0-59.12-27.76c-28.31-6.48-56.12-4.66-83.59,4.47a138.49,138.49,0,0,0-27.1,12.45,38.29,38.29,0,0,1-3.49,1.94c-1.33.61-2.85.59-3.33-1-.26-.81.37-2.11,1-2.91a7.62,7.62,0,0,1,2.46-1.66C54.19,52.1,77,44.34,101.66,42.82c2-.12,4-.43,6-.53C109.46,42.2,111.29,42.27,113.12,42.27Z" transform="translate(-6.11 -6.52)"/><path d="M113,30.24c30.74.44,59.34,7.93,85.72,23.48A14,14,0,0,1,202,55.93c.52.56.81,2.14.43,2.54a4.33,4.33,0,0,1-2.87,1.08c-.71,0-1.45-.73-2.16-1.16a163.34,163.34,0,0,0-56.72-20.91,155.44,155.44,0,0,0-40.25-1.82C88.62,36.74,77,38.46,65.72,42c-6.16,1.95-12.13,4.5-18.2,6.73A18.87,18.87,0,0,1,43.27,50a2.44,2.44,0,0,1-1.84-1.31,2.37,2.37,0,0,1,.48-2.19,13.24,13.24,0,0,1,3.88-2.17c8.63-2.94,17.21-6.09,26-8.59C85.26,31.86,99.16,30.5,113,30.24Z" transform="translate(-6.11 -6.52)"/><path d="M114,18.19a186.15,186.15,0,0,1,70.32,14.9A11.58,11.58,0,0,1,187.78,35a2.7,2.7,0,0,1,.47,2.55,3.11,3.11,0,0,1-2.41,1.19,8.05,8.05,0,0,1-2.77-1,173.4,173.4,0,0,0-50.39-13.44,187.86,187.86,0,0,0-31.39-.71c-13.21.77-25.94,3.44-38.58,7a7.08,7.08,0,0,1-2.91.51,3.1,3.1,0,0,1-2.2-1.54,3.06,3.06,0,0,1,1-2.44A7.43,7.43,0,0,1,61.39,26a177.68,177.68,0,0,1,39.68-7.09C105.38,18.6,109.71,18.43,114,18.19Z" transform="translate(-6.11 -6.52)"/><path d="M116.73,243a184.39,184.39,0,0,0-5.13-39.12A13.3,13.3,0,0,1,111,200a2.78,2.78,0,0,1,1.57-2.08A2.88,2.88,0,0,1,115,199a9.57,9.57,0,0,1,1.1,3.27,168.62,168.62,0,0,1,4.16,58,170.4,170.4,0,0,1-15.47,55.47,17.42,17.42,0,0,1-2.15,3.91c-.49.59-2.07,1.06-2.5.73a4.38,4.38,0,0,1-1.32-2.78c-.08-.71.57-1.52.92-2.27a160.35,160.35,0,0,0,14.73-47.45C115.55,259.64,116,251.32,116.73,243Z" transform="translate(-6.11 -6.52)"/><path d="M163.87,18.06c-6-1.33-11-2.58-16.07-3.54a196.38,196.38,0,0,0-44.16-3.25c-5.62.22-11.21,1.22-16.82,1.78-1.73.17-3.84.91-4.7-1.5C81.57,10,83,8.63,86.25,8.36c9.09-.78,18.19-1.8,27.29-1.84A181.68,181.68,0,0,1,158.94,12c1.61.41,3.24.76,4.81,1.27,1.32.44,2.5,1.2,2.15,2.87A2.11,2.11,0,0,1,163.87,18.06Z" transform="translate(-6.11 -6.52)"/></g></g></svg>